<?xml version="1.0" ?><svg height="257.13" viewBox="0 0 257.13 257.13" width="257.13" xmlns="http://www.w3.org/2000/svg"><path d="M139.29,115.05c5.5,5.87,12.24,6.69,18.72,7.31,6.86.66,13.44,1.73,19.62,4.85a2.62,2.62,0,0,0,1,.06c3-3.85,5.88-7.92,9.23-11.51a34.23,34.23,0,0,1,7.77-5.87c3.23-1.88,5.65-3.84,5.38-8.07-.44-7.16,1.25-13.79,5.77-19.36-.45-2-.95-3.76-1.2-5.54-.36-2.51,1.16-4.64,3.19-4.73a3.81,3.81,0,0,1,4.17,4.41A69.22,69.22,0,0,1,210,90a38.32,38.32,0,0,0-2.23,10.12c-.27,3.37-2.59,6.39-1.49,10.07.27.91-.65,2.65-1.54,3.32a58.71,58.71,0,0,1-6.72,4c-1.3.72-2.89,1.11-3.93,2.09q-5.74,5.49-11.16,11.31c-.7.76-.77,2.1-1.19,3.35-4.6,1.61-8.11-1.55-11.95-3.08-3.69-1.47-7.24-3.34-11.33-3.24-1.08,0-2.14.8-4.2,1.64,6.1,3,9.55,7.53,14.55,10.29,4.79,2.65,8.81,6.71,13.35,10.29,6.84-4,13.56-7.1,21.81-7.81.29-1.67,1-3.54.86-5.33a16.92,16.92,0,0,1,3.31-11.5c1.35-1.92,3.51-3.27,5.51-5.06.8,4.94,1.15,9.48-1.52,14.18-1.8,3.17-2.36,7.1-3.2,10.75a5,5,0,0,1-3.75,4.17c-3.49.93-7,1.69-10.51,2.64s-7.18,1.62-9.24,5.22l-4.64-1.18-1.93-3.88L172,149.08c3.07,5.33,7.54,9.12,11.86,13a42.75,42.75,0,0,1,9,10.4c.68,1.18,1.94,2.48-.09,3.81a2.74,2.74,0,0,0-.57,2.26c.68,4,.32,8.25,2.22,12.11.59,1.19.46,2.78.49,4.19a22.67,22.67,0,0,1-.36,3.38c-.16,1.12,0,2.64-.61,3.29-5,5-3.84,12-5.51,17.95a110,110,0,0,1-4.56,13.07c-.57-.22-1.3-.29-1.4-.59-1.3-3.6-3.44-6.94-3.38-11,.06-3.66,2.48-6.36,3.75-9.53.74-1.83,2.08-3.41,2.91-5.2a16.23,16.23,0,0,0,1.65-10.36c-.95-5-1-10.18-1.35-15.28-.24-3.29-.44-6.58-.68-10.17-4.21-4-8.62-8.28-13.06-12.5-.15-.14-.54,0-.79-.05.42,3,1,6,1.19,9.07a48.93,48.93,0,0,1-.59,6.9c-.17,1.94-.29,3.88-.54,5.81-.17,1.3-.12,2.93-.88,3.79-2.14,2.41-2.19,5.46-3.14,8.24-.35,1-.84,2.61-1.6,2.84-5.73,1.71-7.8,6.74-10.58,11.16a2.89,2.89,0,0,1-.51.45c-4.17-1.44-4.4,3.32-7.26,4.85-3.23-1.68-6.51-.86-10.08.23-3.2,1-6.89-.37-10.19,1.31-.51.26-1.52-.4-2.28-.7-1.38-.54-2.71-1.44-4.13-1.64-5.71-.81-9-4.69-12.24-8.88-1.87-2.39-4.45-4.24-6.73-6.3-.71-.64-1.52-1.16-2.23-1.79s-1.06-1.63-1.6-1.64c-3.72-.05-4.47-2.94-5.38-5.54s-1.62-5.58-2.61-9.1c-.61,1.33-.9,2-1.21,2.62a4.16,4.16,0,0,1-2.72-4.7c.28-2,.6-3.92.88-5.89s.57-4.22,1-7.46c-1.82,1.41-2.79,2.13-3.72,2.89-3.08,2.52-5.89,5.48-9.27,7.49a16.75,16.75,0,0,0-7.89,9.69c-1.94,6.13-3.7,12.32-5.75,18.42A10.42,10.42,0,0,1,58.59,204a7.77,7.77,0,0,0-2.4,7.12c.58,5.24,1.07,10.5,1.51,15.76a30.64,30.64,0,0,1-.22,3.81c-.12,2.72-1.71,3.81-4.23,3.84-1,0-2-.08-3.4-.15-.47-1.38-1.31-2.73-1.32-4.09,0-7.81.38-15.57,4.45-22.6a5.16,5.16,0,0,0,.7-1.81c.56-4.42,1.44-8.84,1.49-13.27a28,28,0,0,1,3.5-12.74c1.81-3.51,3.59-7,8.24-8.24,2.32-.63,4-3.69,6-5.58,1.56-1.47,3.25-2.81,4.86-4.23,3.83-3.37,7.68-6.72,11.43-10.18.63-.57.8-1.64,1.47-3.13-5.23,2.51-9.84,4.56-14.27,6.93a6.67,6.67,0,0,1-6.11.43c-2.58-1-5.4-1.32-8.1-2s-5.49-1.19-7.71-3.21a5.78,5.78,0,0,0-3.1-1.26c-2.82-.31-4.07-2.2-4.57-4.56a41.35,41.35,0,0,0-6.12-14.53,35.92,35.92,0,0,1-2.9-6.25c-1.92-4.65-1.2-6.11,4.1-8.17,2.86,3.54,5.34,7,5.67,12.12.29,4.65,2.17,9.2,3.28,13.51l24.31,7.95c3-1.66,6.75-3.73,10.5-5.75,2-1.1,4-2.57,6.18-3.06a9.41,9.41,0,0,0,5.88-4.12c1.25-1.73,2.8-3.25,4.18-4.9,1-1.2,2-2.44,3.73-4.61-7.7,1.13-14.17,1.82-20.51,3.14-2.24.47-3.87.33-5.44-1a57.52,57.52,0,0,0-15-9A7.06,7.06,0,0,1,60.23,115a5.93,5.93,0,0,0-.61-1.88c-4.44-6.91-5.73-14.53-5.65-22.62,0-4.59-.78-9.19-1-13.8a18.78,18.78,0,0,1,.68-4.2c-6.08-4-6.08-4-3.79-7.68,2.23,1.3,4.48,2.57,6.67,3.93.68.43,1.58,1,1.74,1.71.92,3.79,3.76,7,3.37,11.18-.22,2.49-.38,5-.35,7.49,0,3.46.42,6.91.39,10.36,0,2.59-.44,5.17-.69,7.87,6.51,3.52,12.19,8.57,17.47,14,2.09,2.15,3.79,2.28,6.56,1.64a149.49,149.49,0,0,1,19.88-3.46c3.85-.36,6.58-1.64,8.59-4.55-6.48-1.88-13.06-3.62-19.52-5.72a53.88,53.88,0,0,1-11.32-4.78c-2.58-1.56-4.54-4.25-6.53-6.63-.6-.73-.42-2.13-.54-3.22-.08-.74.26-1.91-.1-2.16-2.7-1.92-2.47-4.94-3-7.6a112.73,112.73,0,0,1-1.43-11.31c-.23-2.86.11-5.69,3.34-7.35-4.4-4.62-3.66-9.41-1.53-14.18,2.95-6.6,6-13.18,9.22-19.64,1.09-2.17,1.42-3.75,0-5.92C80,23.33,80.21,23.21,81,19.11c4-.19,4.71.34,5.52,3.68.7,2.87,1.51,5.72,2.15,8.6a5.87,5.87,0,0,1,.06,2.94c-1,3.3-1.76,6.81-3.44,9.75a68.48,68.48,0,0,0-6.18,15.58c-.83,3-.63,6.23-.7,9.36,0,2.12.32,4.24.37,6.37.16,5.93.24,11.86.34,17.37,10.3,8.38,23.07,9.24,34.82,13.55.59-2.68.87-5.44,1.84-7.93a58,58,0,0,1,4-7.25c-.27-1.3-1-2.7-.71-3.84.92-3.61-.32-5.8-3.66-6.67-2.57-10,.78-14,9.88-12,.19-.42.65-.93.55-1.28-1.71-5.55-1.09-6.5,5-7.28.06,2.17.12,4.35.17,6.35l8.71,1.79c-.42-1.86-.87-3.85-1.39-6.17,5.84,1.38,6.28,2,6.24,8.5,1.71.16,3.59,0,5.19.58s2.91,1.93,4.16,2.8C154.17,79,153.42,83,149,86c-2.3,1.59-3.59,4.66-5.53,7.32,4.49,2.38,2.14,7.72,4.68,11.82,3.57-1.12,7.25-2.29,10.95-3.42s7.31-2.07,10.9-3.3a7,7,0,0,0,3-2.23,10.69,10.69,0,0,0,1.67-3.56A36.62,36.62,0,0,1,183.91,77c3.85-3.84,4.45-8.34,2.34-12.71s-1-8.8-1.42-13.16c-.37-3.57.35-7.27.82-10.89s-.19-7.77,4.08-9.91c.39-.2.31-1.22.59-1.8.75-1.56,1.57-3.08,2.37-4.64,2.91.84,4.21,2.87,3.27,4.64-1.61,3-1.13,5.91-1.17,9-.09,7-.51,13.94-1,20.9-.17,2.6-.84,5.17-1.21,7.77a6.74,6.74,0,0,0-.05,3c1.61,4.66.45,8.95-2,12.8-4,6.2-6.71,13.32-12.91,18-1,.79-1.6,2.52-1.9,3.91-.58,2.59-1.82,3.76-4.56,4.38-5.26,1.19-10.34,3.13-15.52,4.68-4.18,1.26-8.25,3.46-12.84,1.15C142.1,113.66,140.75,114.59,139.29,115.05ZM206.9,62.61c-3.23,2.89-2.34,6,2,7.65C210.39,67.08,208.74,64.89,206.9,62.61Z" fill="#1d1d1b"/></svg>